<?xml version="1.0" encoding="utf-8"?>
<!DOCTYPE svg PUBLIC "-//W3C//DTD SVG 1.1//EN" "http://www.w3.org/Graphics/SVG/1.1/DTD/svg11.dtd">
<svg style="width:30px;height:30px;" version="1.1" id="图形" xmlns="http://www.w3.org/2000/svg" xmlns:xlink="http://www.w3.org/1999/xlink" x="0px" y="0px" width="30px" height="30px" viewBox="0 0 1024 1024" enable-background="new 0 0 1024 1024" xml:space="preserve">
  <path class="svgpath" data-index="path_0" fill="#ffffff" d="M884.03576 825.027319 569.920666 510.909156l314.109977-314.111001c15.730263-15.72924 15.730263-41.232077 0-56.960293-15.730263-15.72924-41.231053-15.72924-56.961316 0L512.95935 453.950909 198.847326 139.838885c-15.728216-15.727193-41.234123-15.727193-56.958246 0-15.730263 15.730263-15.730263 41.231053 0 56.961316L455.999057 510.909156 141.886009 825.027319c-15.727193 15.730263-15.727193 41.231053 0 56.961316 15.727193 15.725146 41.2331 15.725146 56.961316 0l314.112024-314.117141 314.116117 314.117141c15.72924 15.730263 41.23003 15.730263 56.960293 0C899.761929 866.258373 899.761929 840.757582 884.03576 825.027319z" />

</svg>
