<?xml version="1.0" encoding="utf-8"?>
<!DOCTYPE svg PUBLIC "-//W3C//DTD SVG 1.1//EN" "http://www.w3.org/Graphics/SVG/1.1/DTD/svg11.dtd">
<svg version="1.1" id="图形" xmlns="http://www.w3.org/2000/svg" xmlns:xlink="http://www.w3.org/1999/xlink" x="0px" y="0px" width="1024px" height="1024px" viewBox="0 0 1024 1024" enable-background="new 0 0 1024 1024" xml:space="preserve">
  <path fill="#ffffff" d="M515.062784 743.984896c-153.107456 3.503104-288.718848-128.6144-285.215744-279.964672 0-55.993344 39.373824-147.857408 97.99168-241.46944 59.487232-93.611008 103.233536-155.731968 152.228864-221.346816 8.743936-11.377664 20.1216-17.496064 34.994176-17.496064 13.99296 0 27.118592 6.998016 34.993152 17.496064 48.996352 65.614848 93.611008 127.735808 152.228864 221.346816 58.617856 93.611008 97.99168 185.476096 97.99168 241.46944C803.77856 615.370496 669.915136 747.486976 515.060736 743.984896l0 0L515.062784 743.984896zM535.185408 66.817792c-4.37248-6.12864-12.24704-9.621504-20.1216-9.621504-6.998016 0-15.750144 2.624512-19.244032 9.621504C364.580864 245.296896 282.338304 397.526784 282.338304 464.0192c0 62.990336 22.747136 117.235712 68.2496 161.850368 45.492224 44.623872 100.606976 67.371008 164.476928 67.371008 63.867904 0 118.982656-22.747136 164.476928-67.371008 46.370816-44.61568 69.116928-98.861056 69.116928-161.850368 0-34.1248-19.243008-85.736448-57.739264-156.61056C653.298688 236.543744 600.799232 156.934912 535.185408 66.817792L535.185408 66.817792 535.185408 66.817792zM513.31584-151.02592c-99.739648 0-192.482304 8.743936-258.097152 26.241024-34.993152 8.753152-62.119936 19.253248-81.363968 32.36864-23.624704 14.880768-36.749312 34.1248-36.749312 55.123968 0 27.118592 10.500096 47.239168 32.376832 62.111744 24.493056 15.74912 63.867904 24.502272 118.105088 25.370624l0.878592-37.618688c-46.37184 0-79.618048-7.87456-97.992704-19.243008-10.49088-6.998016-15.739904-17.496064-15.739904-30.621696 0-14.872576 27.99616-34.994176 90.107904-51.620864 65.614848-16.618496 147.858432-25.371648 248.475648-25.371648 96.236544 0 185.476096 9.621504 247.586816 25.371648 60.37504 14.871552 88.3712 34.993152 88.3712 51.620864 0 6.996992-3.503104 13.99296-11.377664 21.86752-8.743936 8.754176-36.74112 31.499264-97.114112 31.499264l-2.624512 0-0.869376 37.618688c27.118592 0 52.49024-3.503104 74.358784-11.369472 21.87776-7.87456 39.373824-18.374656 52.499456-31.49824 14.872576-14.872576 22.74816-30.62272 22.74816-48.118784 0-20.999168-12.248064-40.2432-35.871744-55.123968-19.244032-13.115392-46.37184-23.615488-81.364992-32.36864C704.910336-142.283008 613.92384-151.026944 513.31584-151.02592L513.31584-151.02592 513.31584-151.02592zM306.840576 32.692992c0.869376-10.500096-6.998016-19.243008-17.496064-20.1216l-27.99616-1.74592c-10.500096 0-19.253248 7.87456-19.253248 17.496064-0.869376 10.500096 6.996992 19.253248 17.496064 20.1216l27.99616 1.746944C297.219072 50.19008 306.840576 42.323712 306.840576 32.692992L306.840576 32.692992zM782.78144 32.692992c-0.878592-10.500096-9.621504-18.36544-19.253248-17.496064l-27.99616 0.877568c-10.50112 0-18.36544 8.743936-18.36544 19.244032 0.869376 10.500096 8.743936 18.374656 19.243008 17.496064l27.99616-0.8704C774.90688 51.94624 782.78144 43.193088 782.78144 32.692992L782.78144 32.692992zM438.520832 453.161728c0 40.58112 32.898048 73.479168 73.479168 73.479168s73.479168-32.898048 73.479168-73.479168S552.58112 379.681536 512 379.681536 438.520832 412.579584 438.520832 453.161728z" transform="translate(0, 812) scale(1, -1)"/>
</svg>
