<?xml version="1.0" encoding="utf-8"?>
<!DOCTYPE svg PUBLIC "-//W3C//DTD SVG 1.1//EN" "http://www.w3.org/Graphics/SVG/1.1/DTD/svg11.dtd">
<svg version="1.1" id="图形" xmlns="http://www.w3.org/2000/svg" xmlns:xlink="http://www.w3.org/1999/xlink" x="0px" y="0px" width="20px" height="18px" viewBox="0 0 1024 1024" enable-background="new 0 0 1024 1024" xml:space="preserve">
  <path fill="#0c9001" d="M166.7072-160.8 0 468.3968l179.0208 71.808 20.4544-52.608-132.8128-53.248 137.6-519.296 194.7136 78.1312 375.8848-78.8736 182.5536 74.1376-137.6 519.2448-184.192-74.8032-20.6848 52.5312 242.3552 98.4064L1024-45.3952l-244.0192-99.0976L403.968-65.6192 166.7072-160.8zM414.1568 79.6864c-8.448 0-16.4352 3.7632-21.8368 10.2656-2.3296 2.7904-57.9072 69.9392-114.4064 153.7536-33.4336 49.6128-60.1856 94.6432-79.4624 133.9392-25.6768 52.352-38.144 94.08-38.144 127.5648 0 68.2752 26.3936 132.4544 74.3424 180.736C282.624 734.2016 346.368 760.8 414.1568 760.8s131.5328-26.5984 179.4816-74.8544c47.9488-48.2816 74.3424-112.4608 74.3424-180.736 0-33.4848-12.4928-75.2128-38.144-127.5648-19.3024-39.296-46.0032-84.352-79.4624-133.9392-56.5248-83.7888-112.0768-150.9376-114.4064-153.7536C430.5664 83.4496 422.5792 79.6864 414.1568 79.6864L414.1568 79.6864zM414.1568 703.5328c-108.5952 0-196.9408-88.96-196.9408-198.2976 0-44.7744 38.1952-126.1056 107.52-228.9664 33.8688-50.2528 68.0448-95.1552 89.4208-122.3424 21.3504 27.2128 55.552 72.0896 89.4208 122.3424 69.3248 102.8864 107.52 184.192 107.52 228.9664C611.0976 614.5728 522.752 703.5328 414.1568 703.5328L414.1568 703.5328zM414.1568 426.848c-53.3248 0-96.7168 43.6736-96.7168 97.3824 0 53.6832 43.392 97.3568 96.7168 97.3568s96.7168-43.6992 96.7168-97.3568C510.8736 470.5216 467.4816 426.848 414.1568 426.848L414.1568 426.848zM414.1568 564.32c-21.9648 0-39.8336-17.9968-39.8336-40.0896 0-22.1184 17.8688-40.0896 39.8336-40.0896s39.808 17.9968 39.808 40.0896C453.9648 546.3232 436.1216 564.32 414.1568 564.32L414.1568 564.32zM414.1568 564.32" transform="translate(0, 812) scale(1, -1)"/>
</svg>
