<?xml version="1.0" encoding="utf-8"?>
<!DOCTYPE svg PUBLIC "-//W3C//DTD SVG 1.1//EN" "http://www.w3.org/Graphics/SVG/1.1/DTD/svg11.dtd">
<svg version="1.1" id="图形" xmlns="http://www.w3.org/2000/svg" xmlns:xlink="http://www.w3.org/1999/xlink" x="0px" y="0px" width="30px" height="30px" viewBox="0 0 1024 1024" enable-background="new 0 0 1024 1024" xml:space="preserve">
  <path fill="#ec6e3e" d="M66.961064 299.722684c-5.7694 0-11.508102 2.40477-15.59928 7.092535-7.517207 8.608052-6.627954 21.681812 1.980097 29.199019l446.38663 389.565507c7.809873 6.769171 19.398816 6.810103 27.167756 0.020466l185.962366-161.371294 0 71.551616c0 11.437493 9.265014 20.691251 20.691251 20.691251l98.942453 0c11.42726 0 20.691251-9.254781 20.691251-20.691251l0-194.408735 120.745015-105.378026c8.608052-7.496741 9.497305-20.570501 1.980097-29.178553-7.506974-8.628518-20.560268-9.537214-29.199019-1.980097L818.883389 416.396987c-4.496407 3.920286-7.082302 9.598612-7.082302 15.579837L811.801087 615.089281 754.24216 615.089281l0-96.204086c0-8.102538-4.728698-15.458063-12.103666-18.832927-7.374968-3.354398-16.013719-2.101871-22.146393 3.213181L513.378393 682.559952 80.55978 304.814656C76.629261 301.399883 71.790046 299.722684 66.961064 299.722684zM832.493362-126.962232 634.618689-126.962232c-11.42726 0-20.691251 9.254781-20.691251 20.691251L613.927437 120.388273 407.949202 120.388273l0-226.659253c0-11.437493-9.265014-20.691251-20.691251-20.691251L189.383278-126.962232c-11.42726 0-20.691251 9.254781-20.691251 20.691251L168.692027 251.73167c0 11.437493 9.265014 20.691251 20.691251 20.691251s20.691251-9.254781 20.691251-20.691251l0-337.311399 156.491147 0L366.565676 141.079524c0 11.437493 9.265014 20.691251 20.691251 20.691251l247.360737 0c11.42726 0 20.691251-9.254781 20.691251-20.691251l0-226.659253 156.491147 0L811.800064 251.73167c0 11.437493 9.265014 20.691251 20.691251 20.691251 11.42726 0 20.691251-9.254781 20.691251-20.691251l0-358.00265C853.184613-117.70745 843.919599-126.962232 832.493362-126.962232z" transform="translate(0, 812) scale(1, -1)"/>
</svg>
