<?xml version="1.0" encoding="utf-8"?>
<!DOCTYPE svg PUBLIC "-//W3C//DTD SVG 1.1//EN" "http://www.w3.org/Graphics/SVG/1.1/DTD/svg11.dtd">
<svg version="1.1" id="图形" xmlns="http://www.w3.org/2000/svg" xmlns:xlink="http://www.w3.org/1999/xlink" x="0px" y="0px" width="30px" height="30px" viewBox="0 0 1024 1024" enable-background="new 0 0 1024 1024" xml:space="preserve">
  <path fill="#ec6e3e" d="M509.8624 422.9504c-13.4016 0-24.288-10.88-24.288-24.2816l0-194.2912c0-13.4208 10.8864-24.2944 24.288-24.2944 13.4144 0 24.2944 10.8736 24.2944 24.2944L534.1568 398.6688C534.1568 412.0768 523.2768 422.9504 509.8624 422.9504zM765.7088 412.4928 522.9888 566.3296c-3.5072 2.016-7.296 2.9568-11.0656 3.1168-0.5312 0.0448-1.0688 0.0256-1.6 0.0384-0.5376-0.0128-1.0688 0.0064-1.6-0.0384-3.776-0.16-7.5648-1.1008-11.0592-3.1168L254.9312 412.4928c-11.0144-6.3552-15.04-20-9.728-31.296-1.6-12.9792-2.496-26.0544-2.496-39.2 0-154.0096 111.4432-337.8816 267.1552-387.5968 155.7184 49.7152 267.1552 233.5872 267.1552 387.5968 0 12.6144-0.8064 25.1776-2.2848 37.6384C781.1968 391.2 777.2032 405.8432 765.7088 412.4928zM509.8624-16.2048c-128.5376 47.1168-234.7776 216.1664-234.7776 358.2016 0 15.008 1.5744 29.9776 4.416 44.8064l230.8096 146.272 229.7856-145.6256c2.9248-15.0464 4.5376-30.2336 4.5376-45.4592C744.64 195.4688 638.4 30.912 509.8624-16.2048zM509.8624 147.6992c-13.4016 0-24.288-10.8736-24.288-24.288s10.8864-24.288 24.288-24.288c13.4144 0 24.2944 10.8736 24.2944 24.288S523.2768 147.6992 509.8624 147.6992z" transform="translate(0, 812) scale(1, -1)"/>
</svg>
