<?xml version="1.0" encoding="utf-8"?>
<!DOCTYPE svg PUBLIC "-//W3C//DTD SVG 1.1//EN" "http://www.w3.org/Graphics/SVG/1.1/DTD/svg11.dtd">
<svg style="width:20px;height:18px;" version="1.1" id="图形" xmlns="http://www.w3.org/2000/svg" xmlns:xlink="http://www.w3.org/1999/xlink" x="0px" y="0px" width="20px" height="18px" viewBox="0 0 1024 1024" enable-background="new 0 0 1024 1024" xml:space="preserve">
  <path class="svgpath" data-index="path_0" fill="#ffffff" d="M691.72736 454.250496c0-8.108032-2.96448-15.128576-8.892416-21.056512s-12.94848-8.892416-21.056512-8.892416c-53.68832 0-103.308288 7.72096-148.855808 23.15264-45.551616 15.435776-86.039552 36.352-121.467904 62.747648-35.428352 26.396672-72.168448 60.649472-110.22848 102.761472-5.927936 6.54336-8.892416 13.558784-8.892416 21.055488 0 8.108032 2.96448 15.128576 8.892416 21.056512 5.927936 5.926912 12.94848 8.891392 21.056512 8.891392 7.49568 0 14.512128-2.96448 21.056512-8.891392 8.416256-7.496704 19.963904-18.569216 34.643968-33.220608 14.680064-14.651392 25.140224-24.955904 31.376384-30.912512 42.752-38.700032 84.656128-66.15552 125.704192-82.374656 41.048064-16.216064 89.967616-24.328192 146.755584-24.328192 8.108032 0 15.127552-2.96448 21.056512-8.892416s8.892416-12.944384 8.892416-21.055488L691.72736 454.250496zM931.387392 361.55392c0 29.63968-3.116032 59.756544-9.352192 90.348544-14.344192 69.90336-43.131904 129.671168-86.360064 179.303424-43.232256 49.636352-99.01568 91.45344-167.35232 125.452288-66.776064 33.695744-135.115776 50.543616-205.02016 50.543616-46.191616 0-90.819584-7.340032-133.879808-22.020096-4.672512-1.567744-18.400256-8.123392-41.188352-19.672064-22.792192-11.547648-37.764096-17.324032-44.923904-17.324032-5.004288 0-11.167744 4.992-18.496512 14.976-7.323648 9.980928-14.344192 20.900864-21.056512 32.756736-6.708224 11.854848-14.90432 22.774784-24.576 32.754688-9.675776 9.984-19.044352 14.976-28.10368 14.976-9.367552 0-17.319936-1.72032-23.86432-5.159936-6.544384-3.438592-11.380736-7.18848-14.512128-11.240448-3.132416-4.056064-7.340032-10.611712-12.627968-19.672064-0.612352-1.25952-1.552384-2.975744-2.807808-5.159936-1.25952-2.180096-2.112512-3.743744-2.56-4.696064-0.448512-0.951296-0.908288-2.432-1.384448-4.447232-0.47616-2.013184-0.71168-4.124672-0.71168-6.33344 0-10.932224 4.836352-22.395904 14.512128-34.392064s20.288512-22.21568 31.83616-30.65856c11.547648-8.448 22.160384-17.184768 31.832064-26.217472 9.675776-9.03168 14.516224-16.524288 14.516224-22.479872 0-1.258496-2.184192-7.187456-6.544384-17.783808-4.364288-10.600448-6.863872-17.46432-7.507968-20.594688-2.79552-15.908864-4.196352-32.141312-4.196352-48.697344 0-35.874816 6.779904-70.196224 20.343808-102.96832 13.559808-32.772096 32.128-61.559808 55.70048-86.36416 23.57248-24.799232 50.176-46.483456 79.81568-65.051648 29.63968-18.568192 61.47584-33.471488 95.504384-44.711936 17.17248-5.619712 39.791616-9.604096 67.863552-11.952128 28.076032-2.348032 56.080384-3.74784 84.012032-4.196352 27.935744-0.447488 55.784448-1.383424 83.552256-2.807808 27.767808-1.427456 53.279744-5.175296 76.544-11.24352 23.268352-6.064128 40.98048-14.887936 53.143552-26.464256l13.800448-13.800448 13.800448-13.12768c9.19552-8.752128 13.408256-11.86816 12.623872-9.352192s4.908032 0.012288 17.068032-7.507968c12.164096-7.523328 18.948096-8.219648 20.343808-2.096128 12.164096 0 23.168 7.172096 33.007616 21.516288 9.843712 14.344192 17.256448 31.819776 22.232064 52.427776s8.72448 39.95648 11.240448 58.048512 3.760128 33.068032 3.73248 44.919808L931.386368 361.55392zM931.387392 361.55392" />

</svg>
