<?xml version="1.0" encoding="utf-8"?>
<!DOCTYPE svg PUBLIC "-//W3C//DTD SVG 1.1//EN" "http://www.w3.org/Graphics/SVG/1.1/DTD/svg11.dtd">
<svg version="1.1" id="图形" xmlns="http://www.w3.org/2000/svg" xmlns:xlink="http://www.w3.org/1999/xlink" x="0px" y="0px" width="30px" height="30px" viewBox="0 0 1000 1024" enable-background="new 0 0 1000 1024" xml:space="preserve">
  <path fill="#0a0a0a" d="M952.2284-57.5426 672.0915 199.9958c43.7901 55.7742 69.8786 125.8347 69.8786 201.9331 0 181.9366-149.0502 329.4296-332.9123 329.4296-183.8641 0-332.9143-147.493-332.9143-329.4296 0-181.9406 149.0502-329.4336 332.9143-329.4336 81.756 0 156.6144 29.1802 214.5605 77.5674l276.0484-250.9499L952.2284-57.5426zM105.2541 402.8413c0 165.3069 137.3456 299.3151 306.7699 299.3151S718.7928 568.1492 718.7928 402.8413c0-165.3119-137.3436-299.3191-306.7689-299.3191S105.2541 237.5294 105.2541 402.8413z" transform="translate(0, 812) scale(1, -1)"/>
</svg>
