<?xml version="1.0" encoding="utf-8"?>
<!DOCTYPE svg PUBLIC "-//W3C//DTD SVG 1.1//EN" "http://www.w3.org/Graphics/SVG/1.1/DTD/svg11.dtd">
<svg version="1.1" id="图形" xmlns="http://www.w3.org/2000/svg" xmlns:xlink="http://www.w3.org/1999/xlink" x="0px" y="0px" width="20px" height="18px" viewBox="0 0 1024 1024" enable-background="new 0 0 1024 1024" xml:space="preserve">
  <path fill="#0c9001" d="M512 684c212.032 0 384-172.032 384-384 0-212.096-171.968-384-384-384s-384 171.904-384 384C128 511.968 299.968 684 512 684M512 748C264.96 748 64 547.04 64 300c0-246.976 200.96-448 448-448 246.976 0 448 201.024 448 448C960 547.04 758.976 748 512 748L512 748zM180.032 332l77.312 0 0-64-77.312 0 0 64ZM768 331.936l77.312 0 0-64-77.312 0 0 64ZM544.32 294.56 544 635.616 480 635.552 480.384 268.896 481.28 268.896 480.384 267.936 645.12 103.52 690.304 148.832ZM480 45.344l64 0 0-77.312-64 0 0 77.312Z" transform="translate(0, 812) scale(1, -1)"/>
</svg>
