<?xml version="1.0" encoding="utf-8"?>
<!DOCTYPE svg PUBLIC "-//W3C//DTD SVG 1.1//EN" "http://www.w3.org/Graphics/SVG/1.1/DTD/svg11.dtd">
<svg style="width:20px;height:20px;" version="1.1" id="图形" xmlns="http://www.w3.org/2000/svg" xmlns:xlink="http://www.w3.org/1999/xlink" x="0px" y="0px" width="22px" height="23px" viewBox="0 0 1024 1024" enable-background="new 0 0 1024 1024" xml:space="preserve">
  <path class="svgpath" data-index="path_0" fill="#ffffff" d="M442.176 46.592 442.176 0 395.648 0 349.056 0 349.056 46.592 395.648 46.592Z" />
<path class="svgpath" data-index="path_1" fill="#ffffff" d="M302.528 511.936 302.528 558.528 349.056 558.528 349.056 511.936 349.056 465.472 349.056 418.88 349.056 372.352 349.056 325.888 349.056 279.232 349.056 232.768 349.056 186.176 349.056 139.648 349.056 93.12 349.056 46.592 302.528 46.592 302.528 93.12 302.528 139.648 302.528 186.176 302.528 232.768 302.528 279.232 302.528 325.888 302.528 372.352 302.528 418.88 302.528 465.472 256 465.472 256 511.936Z" />
<path class="svgpath" data-index="path_2" fill="#ffffff" d="M814.528 791.168 814.528 837.824 814.528 884.288 861.12 884.288 861.12 837.824 861.12 791.168 861.12 744.704 814.528 744.704Z" />
<path class="svgpath" data-index="path_3" fill="#ffffff" d="M768 930.88 768 977.408 721.408 977.408 674.944 977.408 628.352 977.408 581.824 977.408 535.296 977.408 488.704 977.408 442.176 977.408 395.648 977.408 395.648 930.88 395.648 884.288 349.056 884.288 349.056 930.88 349.056 977.408 349.056 1024 395.648 1024 442.176 1024 488.704 1024 535.296 1024 581.824 1024 628.352 1024 674.944 1024 721.408 1024 768 1024 814.528 1024 814.528 977.408 814.528 930.88 814.528 884.288 768 884.288Z" />
<path class="svgpath" data-index="path_4" fill="#ffffff" d="M349.056 791.168 302.528 791.168 302.528 837.824 302.528 884.288 349.056 884.288 349.056 837.824Z" />
<path class="svgpath" data-index="path_5" fill="#ffffff" d="M302.528 698.176 256 698.176 256 744.704 256 791.168 302.528 791.168 302.528 744.704Z" />
<path class="svgpath" data-index="path_6" fill="#ffffff" d="M256 605.12 209.472 605.12 209.472 651.584 209.472 698.176 256 698.176 256 651.584Z" />
<path class="svgpath" data-index="path_7" fill="#ffffff" d="M162.88 558.528l46.592 0 0 46.656-46.592 0 0-46.656Z" />
<path class="svgpath" data-index="path_8" fill="#ffffff" d="M861.12 465.472 861.12 511.936 861.12 558.528 861.12 605.12 861.12 651.584 861.12 698.176 861.12 744.704 907.648 744.704 907.648 698.176 907.648 651.584 907.648 605.12 907.648 558.528 907.648 511.936 907.648 465.472 907.648 418.88 861.12 418.88Z" />
<path class="svgpath" data-index="path_9" fill="#ffffff" d="M442.176 139.648 442.176 186.176 442.176 232.768 442.176 279.232 442.176 325.888 442.176 372.352 442.176 418.88 442.176 465.472 488.704 465.472 488.704 418.88 488.704 372.352 488.704 325.888 488.704 279.232 535.296 279.232 581.824 279.232 581.824 232.768 535.296 232.768 488.704 232.768 488.704 186.176 488.704 139.648 488.704 93.12 488.704 46.592 442.176 46.592 442.176 93.12Z" />
<path class="svgpath" data-index="path_10" fill="#ffffff" d="M581.824 372.352 581.824 418.88 581.824 465.472 628.352 465.472 628.352 418.88 628.352 372.352 628.352 325.888 674.944 325.888 721.408 325.888 721.408 279.232 674.944 279.232 628.352 279.232 581.824 279.232 581.824 325.888Z" />
<path class="svgpath" data-index="path_11" fill="#ffffff" d="M721.408 418.88 721.408 465.472 768 465.472 768 418.88 768 372.352 814.528 372.352 814.528 325.888 768 325.888 721.408 325.888 721.408 372.352Z" />
<path class="svgpath" data-index="path_12" fill="#ffffff" d="M814.528 372.352l46.656 0 0 46.528-46.656 0 0-46.528Z" />
<path class="svgpath" data-index="path_13" fill="#ffffff" d="M162.88 465.472 209.472 465.472 256 465.472 256 418.88 209.472 418.88 162.88 418.88 116.352 418.88 116.352 465.472 116.352 511.936 116.352 558.528 162.88 558.528 162.88 511.936Z" />

</svg>
