<?xml version="1.0" encoding="utf-8"?>
<!DOCTYPE svg PUBLIC "-//W3C//DTD SVG 1.1//EN" "http://www.w3.org/Graphics/SVG/1.1/DTD/svg11.dtd">
<svg version="1.1" id="图形" xmlns="http://www.w3.org/2000/svg" xmlns:xlink="http://www.w3.org/1999/xlink" x="0px" y="0px" width="80px" height="80px" viewBox="0 0 1024 1024" enable-background="new 0 0 1024 1024" xml:space="preserve">
  <path fill="#ffffff" d="M512.006442 574.456755C360.446538 574.456755 237.562885 451.554221 237.562885 299.994144 237.562885 148.443437 360.445366 25.560813 512.006442 25.560813 663.567517 25.560813 786.448829 148.443437 786.448829 299.994144 786.448829 451.554221 663.566346 574.456755 512.006442 574.456755L512.006442 574.456755ZM512.006442 609.770371C546.338531 609.770371 574.160958 637.594002 574.160958 671.926131L574.160958 749.84424C574.160958 784.17637 546.33736 812 512.006442 812 477.675523 812 449.849582 784.175198 449.849582 749.84424L449.849582 671.926131C449.849582 637.595173 477.674352 609.770371 512.006442 609.770371L512.006442 609.770371ZM512.006442-9.771542C477.674352-9.771542 449.850754-37.596344 449.850754-71.927302L449.850754-149.844241C449.850754-184.17637 477.675523-212 512.006442-212 546.33736-212 574.160958-184.175199 574.160958-149.844241L574.160958-71.928473C574.160958-37.596344 546.33736-9.771542 512.006442-9.771542L512.006442-9.771542ZM961.845483 362.149902 883.928634 362.149902C849.596542 362.149902 821.782315 334.335643 821.782315 299.994144 821.782315 265.672555 849.596542 237.847755 883.928634 237.847755L961.845483 237.847755C996.177573 237.847755 1024 265.672555 1024 299.994144 1024 334.335643 996.176402 362.149902 961.845483 362.149902L961.845483 362.149902ZM202.229397 299.994144C202.229397 334.335643 174.404629 362.149902 140.073709 362.149902L62.155688 362.149902C27.85405 362.149902 0 334.335643 0 299.994144 0 265.672555 27.85405 237.847755 62.155688 237.847755L140.073709 237.847755C174.4058 237.847755 202.229397 265.672555 202.229397 299.994144L202.229397 299.994144ZM818.965522 80.942205C794.682533 105.215851 755.361029 105.215851 731.05813 80.942205 706.784512 56.659189 706.784512 17.318901 731.05813-6.954746L786.160707-62.037475C798.282875-74.178397 814.184584-80.26057 830.114403-80.26057 846.014939-80.26057 861.906107-74.179568 874.037646-62.037475 898.330003-37.75563 898.330003 1.57529 874.037646 25.848934L818.965522 80.942205 818.965522 80.942205ZM205.01691 519.036714C217.16836 506.88525 233.099349 500.834699 248.999886 500.834699 264.909794 500.834699 280.800962 506.88525 292.952411 519.007432 317.226029 543.281078 317.226029 582.631909 292.972322 606.933664L237.879115 662.036304C213.625408 686.279498 174.265253 686.279498 149.962354 662.085494 125.679366 637.782568 125.679366 598.431738 149.942443 574.159264L205.01691 519.036714 205.01691 519.036714ZM205.047363 80.942205 149.964696 25.848934C125.681708 1.57529 125.681708-37.75563 149.964696-62.037475 162.076325-74.178397 178.007314-80.26057 193.927762-80.26057 209.80956-80.26057 225.730008-74.179568 237.851005-62.037475L292.953582-6.954746C317.2272 17.318901 317.2272 56.658018 292.953582 80.942205 268.679965 105.21468 229.290528 105.21468 205.047363 80.942205L205.047363 80.942205ZM775.021195 500.834699C790.912363 500.834699 806.863262 506.88525 818.984261 519.036714L874.077467 574.159264C898.330003 598.431738 898.330003 637.782568 874.037646 662.085494 849.754658 686.279498 810.414414 686.32869 786.111515 662.036304L731.03939 606.933664C706.785683 582.630738 706.785683 543.279907 731.059301 519.007432 743.209579 506.88525 759.110117 500.834699 775.021195 500.834699L775.021195 500.834699Z" transform="translate(0, 812) scale(1, -1)"/>
</svg>
