<?xml version="1.0" encoding="utf-8"?>
<!DOCTYPE svg PUBLIC "-//W3C//DTD SVG 1.1//EN" "http://www.w3.org/Graphics/SVG/1.1/DTD/svg11.dtd">
<svg style="width:30px;height:30px;" version="1.1" id="图形" xmlns="http://www.w3.org/2000/svg" xmlns:xlink="http://www.w3.org/1999/xlink" x="0px" y="0px" width="1024px" height="1024px" viewBox="0 0 1024 1024" enable-background="new 0 0 1024 1024" xml:space="preserve">
  <path class="svgpath" data-index="path_0" fill="#ef402b" d="M654.08 104.064c-66.144 18.752-103.424 47.168-123.104 67.424 25.312 1.184 50.304 6.144 74.88 13.152 58.336 9.376 157.696 41.952 254.752 151.904C1024 521.632 967.68 835.84 898.816 941.76c0 0 34.048-111.36 8.8-246.112-25.376-135.424-59.936-149.728-61.6-135.072-0.608 59.84-18.144 161.056-108.256 271.904C581.984 1024 263.2 1019.52 147.616 968.704c0 0 115.264 15.52 243.936-31.392 102.368-37.312 127.52-76.224 133.568-90.656-212.64 23.776-353.152-165.632-376.704-197.856C0 445.856 85.536 168.256 162.304 67.872c0 0-48.352 96.576-33.024 232.768 7.104 63.072 26.272 102.944 42.368 126.72 9.792-57.536 61.6-165.024 142.464-247.68C489.92 0 777.408 39.328 888.8 98.816 888.8 98.816 785.76 66.752 654.08 104.064zM420.672 438.336c-41.728 52.864-32.384 129.76 20.928 171.776 53.28 42.016 130.336 33.216 172.064-19.648 41.728-52.864 32.352-129.76-20.928-171.776C539.456 376.672 462.4 385.472 420.672 438.336z" />
</svg>
