<?xml version="1.0" encoding="utf-8"?>
<!DOCTYPE svg PUBLIC "-//W3C//DTD SVG 1.1//EN" "http://www.w3.org/Graphics/SVG/1.1/DTD/svg11.dtd">
<svg version="1.1" id="图形" xmlns="http://www.w3.org/2000/svg" xmlns:xlink="http://www.w3.org/1999/xlink" x="0px" y="0px" width="20px" height="18px" viewBox="0 0 1024 1024" enable-background="new 0 0 1024 1024" xml:space="preserve">
  <path fill="#ffffff" d="M512-211.999984C383.439509-211.999984 279.222658-110.125958 279.222658 15.548672c0 57.624145 22.078395 110.081666 58.182699 150.173425L337.405357 641.33075c0 94.255972 78.166516 170.66925 174.594643 170.66925 96.412611 0 174.579127-76.413278 174.579127-170.66925l0-475.624169c36.104304-40.091758 58.182699-92.54928 58.182699-150.173425C744.777342-110.125958 640.560491-211.999984 512-211.999984zM570.198214 113.543852l0 122.106091L570.198214 527.556422 570.198214 641.33075c0 31.418657-26.050334 56.894922-58.182699 56.894922-32.147881 0-58.198214-25.476264-58.198214-56.894922l0-113.774328 0-291.906479 0-122.106091c-34.645858-19.704541-58.182699-55.995029-58.182699-97.99518 0-62.837315 52.100667-113.774328 116.396428-113.774328 64.280246 0 116.380913 50.937013 116.380913 113.774328C628.396428 57.564338 604.844072 93.839311 570.198214 113.543852zM512-69.785953c-48.206305 0-87.305079 38.198881-87.305079 85.334625 0 37.097289 24.359157 68.360792 58.198214 80.10594L482.893135 387.111144l58.198214 0L541.091349 95.654612c33.839058-11.745147 58.198214-43.008651 58.198214-80.10594C599.289564-31.571556 560.221821-69.785953 512-69.785953z" transform="translate(0, 812) scale(1, -1)"/>
</svg>
