<?xml version="1.0" encoding="utf-8"?>
<!DOCTYPE svg PUBLIC "-//W3C//DTD SVG 1.1//EN" "http://www.w3.org/Graphics/SVG/1.1/DTD/svg11.dtd">
<svg version="1.1" id="图形" xmlns="http://www.w3.org/2000/svg" xmlns:xlink="http://www.w3.org/1999/xlink" x="0px" y="0px" width="30px" height="30px" viewBox="0 0 1024 1024" enable-background="new 0 0 1024 1024" xml:space="preserve">
  <path fill="#0c9001" d="M454.118732-13.811172c-12.405541 0-22.473851-9.91686-22.473851-22.135136 0-12.241812 10.069333-22.160719 22.473851-22.160719 12.405541 0 22.449291 9.918907 22.449291 22.160719C476.568023-23.728032 466.524273-13.811172 454.118732-13.811172zM341.800643 30.509243c-12.405541 0-22.472827-9.91686-22.472827-22.160719 0-12.241812 10.067286-22.160719 22.472827-22.160719 12.405541 0 22.449291 9.918907 22.449291 22.160719C364.249935 20.592382 354.205161 30.509243 341.800643 30.509243zM454.118732 212.339498c-12.405541 0-22.473851-9.918907-22.473851-22.160719l0-160.618141c0-12.218276 10.069333-22.135136 22.473851-22.135136 12.405541 0 22.449291 9.91686 22.449291 22.135136l0 160.618141C476.568023 202.420591 466.524273 212.339498 454.118732 212.339498zM341.800643 256.635353c-12.405541 0-22.472827-9.918907-22.472827-22.160719l0-160.592558c0-12.242835 10.067286-22.160719 22.472827-22.160719 12.405541 0 22.449291 9.91686 22.449291 22.160719L364.249935 234.474634C364.249935 246.716446 354.205161 256.635353 341.800643 256.635353zM678.755931-13.811172c-12.405541 0-22.449291-9.91686-22.449291-22.135136 0-12.241812 10.04375-22.160719 22.449291-22.160719 12.405541 0 22.472827 9.918907 22.472827 22.160719C701.228759-23.728032 691.161473-13.811172 678.755931-13.811172zM678.755931 212.339498c-12.405541 0-22.449291-9.918907-22.449291-22.160719l0-160.618141c0-12.218276 10.04375-22.135136 22.449291-22.135136 12.405541 0 22.472827 9.91686 22.472827 22.135136l0 160.618141C701.228759 202.420591 691.161473 212.339498 678.755931 212.339498zM566.437843 30.509243c-12.405541 0-22.473851-9.91686-22.473851-22.160719 0-12.241812 10.069333-22.160719 22.473851-22.160719s22.473851 9.918907 22.473851 22.160719C588.911694 20.592382 578.842361 30.509243 566.437843 30.509243zM804.200992 463.247015c-34.133402 120.469746-144.240125 203.488531-272.219915 203.488531-105.780185 0-202.984041-58.934251-251.312746-151.274332-116.170836-11.590989-205.29569-107.552551-205.29569-224.099964 0-102.95586 70.254064-190.146665 167.010735-216.754672l0.224104 0.925069c1.541099-0.349971 2.982938-0.925069 4.624321-0.925069 11.534707 0 20.881586 9.217942 20.881586 20.611433 0 9.768481-7.059789 17.587564-16.35755 19.685341l0.223081 0.899486c-82.386382 28.15627-131.684158 90.489944-131.684158 175.558411 0 95.986121 75.302033 174.459381 172.1068 180.454932 55.886845-2.698458 111.871927-33.227776 140.78442-75.125001l0.173962 0.074701c3.87833-6.695492 10.912537-11.392468 19.290345-11.392468 12.480242 0 22.573111 9.967002 22.573111 22.258956 0 3.173273-0.695848 6.147-1.889023 8.870018l0.149403 0.073678c-0.895393 1.3743-1.962701 2.548032-2.882654 3.897773-0.771573 1.049912-1.343601 2.199085-2.287089 3.098571-34.133402 48.542576-80.447217 78.123288-138.148383 87.967494 43.082214 68.154239 119.327736 110.899786 201.814402 110.899786 111.373577 0 206.638267-74.749448 231.698013-181.778066l3.032056-13.017478 13.075807-3.420913c70.927399-18.563798 120.473839-81.995479 120.473839-154.272619 0-72.951499-43.754526-136.709615-112.493074-155.546635l0.025583-0.124843c-7.732102-3.022847-13.226233-10.368138-13.226233-19.062148 0-11.393491 9.373485-20.611433 20.908192-20.611433 1.391696 0 2.635013 0.524956 3.977591 0.799202l0-0.050142c0.12382 0.025583 0.249687 0.074701 0.373507 0.124843 1.989307 0.424672 3.828188 0.99977 5.568832 1.948375 81.566714 27.607778 139.789767 103.655801 139.789767 192.522782C945.183933 357.866942 887.856273 435.539976 804.200992 463.247015zM566.437843 256.635353c-12.405541 0-22.473851-9.918907-22.473851-22.160719l0-160.592558c0-12.242835 10.069333-22.160719 22.473851-22.160719s22.473851 9.91686 22.473851 22.160719L588.911694 234.474634C588.911694 246.716446 578.842361 256.635353 566.437843 256.635353z" transform="translate(0, 812) scale(1, -1)"/>
</svg>
